<svg xmlns="http://www.w3.org/2000/svg" width="256" height="256" viewBox="0 0 64 64" shape-rendering="crispEdges">
  <defs>
    <linearGradient id="bg" x1="0" y1="0" x2="0" y2="1"><stop stop-color="#071526"/><stop offset="1" stop-color="#101a30"/></linearGradient>
    <linearGradient id="glass" x1="0" y1="0" x2="1" y2="1"><stop stop-color="#6ee7ff"/><stop offset="1" stop-color="#2563eb"/></linearGradient>
  </defs>
  <rect width="64" height="64" fill="url(#bg)"/>
  <rect x="2" y="3" width="60" height="42" fill="#0b2037" stroke="#203f5d"/>
  <rect x="4" y="5" width="26" height="14" fill="#092942"/><rect x="34" y="5" width="26" height="14" fill="#092942"/>
  <rect x="6" y="7" width="22" height="10" fill="#0c3756"/><rect x="36" y="7" width="22" height="10" fill="#0c3756"/>
  <g fill="#4edcff"><rect x="8" y="9" width="7" height="1"/><rect x="8" y="12" width="12" height="1"/><rect x="8" y="15" width="9" height="1"/><rect x="38" y="9" width="16" height="1"/><rect x="38" y="12" width="7" height="1"/><rect x="47" y="12" width="7" height="1"/><rect x="38" y="15" width="13" height="1"/></g>
  <g fill="#8b5cf6"><rect x="22" y="9" width="4" height="1"/><rect x="22" y="12" width="4" height="1"/><rect x="53" y="15" width="3" height="1"/></g>
  <rect x="3" y="45" width="58" height="15" fill="#111b2e"/><rect x="6" y="48" width="52" height="8" fill="#17233a" stroke="#2d4565"/>
  <rect x="8" y="50" width="11" height="4" fill="#0a2c45"/><rect x="45" y="50" width="11" height="4" fill="#0a2c45"/>
  <g fill="#67e8f9"><rect x="9" y="51" width="2" height="1"/><rect x="12" y="51" width="3" height="1"/><rect x="16" y="51" width="2" height="1"/><rect x="46" y="51" width="3" height="1"/><rect x="50" y="51" width="2" height="1"/><rect x="53" y="51" width="2" height="1"/></g>
  <rect x="17" y="31" width="30" height="18" fill="#0a1324" stroke="#2b4869"/>
  <rect x="20" y="33" width="24" height="13" fill="#0d2942"/><rect x="22" y="35" width="20" height="9" fill="url(#glass)" opacity=".85"/>
  <g stroke="#d7f8ff" stroke-width="1" fill="none"><path d="M24 41l4-4 4 4 4-4 4 4"/><circle cx="28" cy="37" r="1"/><circle cx="36" cy="37" r="1"/></g>
  <rect x="24" y="26" width="16" height="18" fill="#d9b08b"/>
  <rect x="21" y="23" width="22" height="7" fill="#eaf4ff"/><rect x="20" y="25" width="5" height="10" fill="#c7d8ee"/><rect x="39" y="25" width="5" height="10" fill="#c7d8ee"/>
  <rect x="23" y="20" width="18" height="4" fill="#f7fbff"/><rect x="26" y="18" width="12" height="3" fill="#d9e9fa"/>
  <rect x="25" y="28" width="5" height="3" fill="#12263d"/><rect x="34" y="28" width="5" height="3" fill="#12263d"/>
  <rect x="26" y="29" width="3" height="1" fill="#51d8ff"/><rect x="35" y="29" width="3" height="1" fill="#51d8ff"/>
  <rect x="30" y="34" width="4" height="1" fill="#9b5f67"/>
  <rect x="18" y="36" width="28" height="13" fill="#e9f2ff"/><rect x="20" y="37" width="24" height="12" fill="#273a59"/>
  <rect x="22" y="38" width="20" height="3" fill="#37527a"/><rect x="24" y="41" width="16" height="1" fill="#6ee7ff"/>
  <rect x="14" y="38" width="7" height="9" fill="#d9b08b"/><rect x="43" y="38" width="7" height="9" fill="#d9b08b"/>
  <rect x="14" y="43" width="8" height="4" fill="#273a59"/><rect x="42" y="43" width="8" height="4" fill="#273a59"/>
  <rect x="23" y="49" width="7" height="9" fill="#1a2942"/><rect x="34" y="49" width="7" height="9" fill="#1a2942"/>
  <rect x="22" y="57" width="9" height="3" fill="#07101d"/><rect x="33" y="57" width="9" height="3" fill="#07101d"/>
  <rect x="42" y="24" width="5" height="7" fill="#12263d"/><rect x="44" y="25" width="3" height="4" fill="#59e0ff"/><rect x="46" y="26" width="3" height="1" fill="#8b5cf6"/>
  <g fill="#6ee7ff"><rect x="10" y="25" width="1" height="6"/><rect x="8" y="27" width="5" height="1"/><rect x="53" y="23" width="1" height="8"/><rect x="50" y="26" width="7" height="1"/></g>
  <g fill="#a78bfa"><rect x="9" y="22" width="3" height="1"/><rect x="52" y="32" width="4" height="1"/></g>
</svg>