<svg xmlns="http://www.w3.org/2000/svg" width="384" height="512" viewBox="0 0 96 128" shape-rendering="crispEdges">
  <defs>
    <linearGradient id="bg" x1="0" y1="0" x2="0" y2="1"><stop stop-color="#071426"/><stop offset="1" stop-color="#0b2236"/></linearGradient>
    <linearGradient id="screen" x1="0" y1="0" x2="1" y2="1"><stop stop-color="#0ea5e9"/><stop offset="1" stop-color="#22d3ee"/></linearGradient>
  </defs>
  <rect width="96" height="128" fill="url(#bg)"/>
  <rect x="3" y="4" width="90" height="72" fill="#0a1c31" stroke="#244866" stroke-width="2"/>
  <rect x="6" y="8" width="29" height="25" fill="#0b2944" stroke="#1b6388"/>
  <rect x="38" y="8" width="52" height="25" fill="#0b2944" stroke="#1b6388"/>
  <rect x="9" y="11" width="23" height="18" fill="#062039"/>
  <rect x="41" y="11" width="46" height="18" fill="#062039"/>
  <g fill="#22d3ee"><rect x="11" y="13" width="13" height="2"/><rect x="11" y="18" width="19" height="2"/><rect x="11" y="23" width="10" height="2"/><rect x="43" y="13" width="30" height="2"/><rect x="43" y="18" width="18" height="2"/><rect x="63" y="18" width="20" height="2"/><rect x="43" y="23" width="35" height="2"/></g>
  <g fill="#60a5fa"><rect x="26" y="13" width="5" height="2"/><rect x="75" y="13" width="9" height="2"/><rect x="79" y="23" width="5" height="2"/></g>
  <rect x="5" y="78" width="86" height="42" fill="#101d2d" stroke="#2b4a62" stroke-width="2"/>
  <rect x="8" y="84" width="80" height="12" fill="#14283b" stroke="#31526a"/>
  <rect x="10" y="87" width="29" height="6" fill="#071a2b"/><rect x="57" y="87" width="28" height="6" fill="#071a2b"/>
  <g fill="#38bdf8"><rect x="12" y="89" width="5" height="2"/><rect x="19" y="89" width="4" height="2"/><rect x="25" y="89" width="5" height="2"/><rect x="32" y="89" width="5" height="2"/><rect x="59" y="89" width="6" height="2"/><rect x="67" y="89" width="4" height="2"/><rect x="73" y="89" width="5" height="2"/><rect x="80" y="89" width="3" height="2"/></g>
  <rect x="29" y="48" width="38" height="32" fill="#081522" stroke="#2e6380" stroke-width="2"/>
  <rect x="33" y="52" width="30" height="22" fill="#0b2c44"/>
  <rect x="36" y="55" width="24" height="16" fill="url(#screen)" opacity=".9"/>
  <g fill="#e0f2fe"><rect x="39" y="58" width="11" height="2"/><rect x="39" y="63" width="18" height="2"/><rect x="39" y="68" width="14" height="2"/></g>
  <circle cx="50" cy="60" r="5" fill="none" stroke="#a5f3fc" stroke-width="1"/><circle cx="50" cy="60" r="2" fill="#67e8f9"/>
  <rect x="35" y="34" width="26" height="32" fill="#f0c4a0"/>
  <rect x="29" y="29" width="38" height="10" fill="#dbeafe"/>
  <rect x="27" y="34" width="10" height="24" fill="#cbd5e1"/>
  <rect x="59" y="34" width="10" height="24" fill="#cbd5e1"/>
  <rect x="31" y="26" width="11" height="8" fill="#e2e8f0"/>
  <rect x="42" y="24" width="13" height="10" fill="#f8fafc"/>
  <rect x="55" y="27" width="9" height="8" fill="#dbeafe"/>
  <rect x="36" y="40" width="7" height="5" fill="#12304a"/>
  <rect x="53" y="40" width="7" height="5" fill="#12304a"/>
  <rect x="38" y="42" width="4" height="2" fill="#38bdf8"/>
  <rect x="55" y="42" width="4" height="2" fill="#38bdf8"/>
  <rect x="45" y="50" width="7" height="2" fill="#b76e79"/>
  <rect x="30" y="55" width="36" height="27" fill="#eef2f7"/>
  <rect x="33" y="57" width="30" height="25" fill="#dbe4ef"/>
  <rect x="38" y="59" width="20" height="5" fill="#142b44"/>
  <rect x="40" y="60" width="16" height="2" fill="#38bdf8"/>
  <rect x="25" y="58" width="9" height="20" fill="#f0c4a0"/>
  <rect x="62" y="58" width="9" height="20" fill="#f0c4a0"/>
  <rect x="25" y="70" width="12" height="8" fill="#dce7f2"/>
  <rect x="59" y="70" width="12" height="8" fill="#dce7f2"/>
  <rect x="35" y="82" width="11" height="27" fill="#1a2d42"/>
  <rect x="50" y="82" width="11" height="27" fill="#1a2d42"/>
  <rect x="33" y="106" width="15" height="6" fill="#07111c"/>
  <rect x="48" y="106" width="15" height="6" fill="#07111c"/>
  <rect x="61" y="32" width="10" height="15" fill="#0e2638"/>
  <rect x="63" y="34" width="6" height="10" fill="#38bdf8"/>
  <rect x="69" y="36" width="6" height="2" fill="#67e8f9"/>
  <rect x="18" y="43" width="7" height="11" fill="#0d2539" stroke="#256a8a"/>
  <rect x="20" y="45" width="3" height="7" fill="#22d3ee"/>
  <path d="M12 68h10v4h-2v10h-6V72h-2z" fill="#d8f4ff" stroke="#38bdf8"/>
  <rect x="14" y="76" width="6" height="5" fill="#22d3ee" opacity=".8"/>
  <g fill="#67e8f9"><rect x="9" y="38" width="14" height="2"/><rect x="73" y="39" width="13" height="2"/><rect x="76" y="44" width="10" height="2"/><rect x="11" y="58" width="10" height="2"/></g>
  <g fill="#60a5fa"><rect x="15" y="35" width="6" height="2"/><rect x="78" y="50" width="7" height="2"/></g>
</svg>